<mxfile host="app.diagrams.net" modified="2023-09-15T09:46:09.315Z" agent="Mozilla/5.0 (Windows NT 10.0; Win64; x64) AppleWebKit/537.36 (KHTML, like Gecko) Chrome/116.0.0.0 Safari/537.36" version="21.7.1" etag="IHImi3L3962i0dtIP9JE" type="github">
  <diagram name="第 1 页" id="Dt46jdyRAChE3wyuOE7q">
    <mxGraphModel>
      <root>
        <mxCell id="0" />
        <mxCell id="1" parent="0" />
      </root>
    </mxGraphModel>
  </diagram>
</mxfile>
